<svg xmlns="http://www.w3.org/2000/svg" viewBox="0 0 512 512">
  <rect width="512" height="512" fill="#ff5a1f"/>
  <!-- Anvil base -->
  <rect x="168" y="356" width="176" height="30" rx="8" fill="#fff"/>
  <rect x="196" y="330" width="120" height="32" rx="7" fill="#fff"/>
  <!-- Flame -->
  <path d="M256 104
    C256 104 228 152 228 192
    C228 214 238 224 238 224
    C238 224 230 204 246 188
    C246 188 234 234 256 256
    C256 256 268 236 264 216
    C264 216 282 236 278 266
    C278 266 304 246 304 212
    C304 180 286 156 278 126
    C278 126 292 152 288 174
    C288 174 310 150 310 114
    C310 114 288 136 278 106
    C278 106 270 140 256 144
    C256 144 270 116 256 104Z"
    fill="#fff" opacity="0.95"/>
  <path d="M256 160
    C256 160 242 182 246 204
    C246 204 253 192 256 184
    C256 184 253 210 267 226
    C267 226 274 210 270 194
    C270 194 282 210 278 226
    C278 226 290 214 286 198
    C286 198 274 220 256 224
    C246 224 238 214 256 160Z"
    fill="#ff5a1f"/>
</svg>
