<svg xmlns="http://www.w3.org/2000/svg" viewBox="0 0 512 512">
  <rect width="512" height="512" rx="112" fill="#ff5a1f"/>
  <!-- Anvil base -->
  <rect x="152" y="348" width="208" height="36" rx="10" fill="#fff"/>
  <rect x="184" y="320" width="144" height="36" rx="8" fill="#fff"/>
  <!-- Flame body -->
  <path d="M256 84
    C256 84 224 136 224 180
    C224 204 236 216 236 216
    C236 216 228 196 244 180
    C244 180 232 228 256 252
    C256 252 268 232 264 212
    C264 212 284 232 280 264
    C280 264 308 244 308 208
    C308 176 288 152 280 120
    C280 120 296 148 292 172
    C292 172 316 148 316 108
    C316 108 292 132 280 100
    C280 100 272 136 256 140
    C256 140 272 112 256 84Z"
    fill="#fff" opacity="0.95"/>
  <!-- Inner flame -->
  <path d="M256 148
    C256 148 240 172 244 196
    C244 196 252 184 256 176
    C256 176 252 204 268 220
    C268 220 276 204 272 188
    C272 188 284 204 280 220
    C280 220 292 208 288 192
    C288 192 276 216 256 220
    C244 220 236 208 256 148Z"
    fill="#ff5a1f"/>
</svg>
